<svg width="135" height="75" viewBox="0 0 135 75" fill="none" xmlns="http://www.w3.org/2000/svg">
<rect width="135" height="75" fill="white"/>
<rect x="13.5" y="16.5" width="108" height="42" fill="#21AD15" stroke="black" stroke-width="3" stroke-linejoin="round"/>
<path d="M40.6373 45V30.4545H43.7125V42.4645H49.9483V45H40.6373ZM64.785 37.7273C64.785 39.3134 64.4843 40.6629 63.883 41.7756C63.2864 42.8883 62.472 43.7382 61.4398 44.3253C60.4123 44.9077 59.257 45.1989 57.9739 45.1989C56.6813 45.1989 55.5212 44.9053 54.4938 44.3182C53.4663 43.7311 52.6543 42.8812 52.0577 41.7685C51.4611 40.6558 51.1628 39.3087 51.1628 37.7273C51.1628 36.1411 51.4611 34.7917 52.0577 33.679C52.6543 32.5663 53.4663 31.7187 54.4938 31.1364C55.5212 30.5492 56.6813 30.2557 57.9739 30.2557C59.257 30.2557 60.4123 30.5492 61.4398 31.1364C62.472 31.7187 63.2864 32.5663 63.883 33.679C64.4843 34.7917 64.785 36.1411 64.785 37.7273ZM61.6671 37.7273C61.6671 36.6998 61.5132 35.8333 61.2054 35.1278C60.9024 34.4223 60.4739 33.8873 59.9199 33.5227C59.3659 33.1581 58.7173 32.9759 57.9739 32.9759C57.2305 32.9759 56.5819 33.1581 56.0279 33.5227C55.4739 33.8873 55.043 34.4223 54.7353 35.1278C54.4322 35.8333 54.2807 36.6998 54.2807 37.7273C54.2807 38.7547 54.4322 39.6212 54.7353 40.3267C55.043 41.0322 55.4739 41.5672 56.0279 41.9318C56.5819 42.2964 57.2305 42.4787 57.9739 42.4787C58.7173 42.4787 59.3659 42.2964 59.9199 41.9318C60.4739 41.5672 60.9024 41.0322 61.2054 40.3267C61.5132 39.6212 61.6671 38.7547 61.6671 37.7273ZM79.8968 35.5469H76.786C76.7292 35.1444 76.6132 34.7869 76.438 34.4744C76.2628 34.1572 76.0379 33.8873 75.7633 33.6648C75.4887 33.4422 75.1715 33.2718 74.8116 33.1534C74.4565 33.035 74.0706 32.9759 73.6539 32.9759C72.9011 32.9759 72.2453 33.1629 71.6866 33.5369C71.1279 33.9062 70.6947 34.446 70.3869 35.1562C70.0791 35.8617 69.9252 36.7187 69.9252 37.7273C69.9252 38.7642 70.0791 39.6354 70.3869 40.3409C70.6994 41.0464 71.135 41.5791 71.6937 41.9389C72.2524 42.2988 72.8987 42.4787 73.6326 42.4787C74.0446 42.4787 74.4257 42.4242 74.7761 42.3153C75.1312 42.2064 75.4461 42.0478 75.7207 41.8395C75.9953 41.6264 76.2226 41.3684 76.4025 41.0653C76.5872 40.7623 76.715 40.4167 76.786 40.0284L79.8968 40.0426C79.8163 40.7102 79.6151 41.3542 79.2931 41.9744C78.9759 42.59 78.5474 43.1416 78.0076 43.6293C77.4726 44.1122 76.8334 44.4957 76.09 44.7798C75.3514 45.0592 74.5157 45.1989 73.5829 45.1989C72.2856 45.1989 71.1255 44.9053 70.1028 44.3182C69.0848 43.7311 68.2799 42.8812 67.688 41.7685C67.1009 40.6558 66.8074 39.3087 66.8074 37.7273C66.8074 36.1411 67.1056 34.7917 67.7022 33.679C68.2988 32.5663 69.1085 31.7187 70.1312 31.1364C71.1539 30.5492 72.3045 30.2557 73.5829 30.2557C74.4257 30.2557 75.207 30.3741 75.9267 30.6108C76.6511 30.8475 77.2927 31.1932 77.8514 31.6477C78.4101 32.0975 78.8646 32.6491 79.215 33.3026C79.5701 33.956 79.7974 34.7041 79.8968 35.5469ZM82.1021 45V30.4545H85.1774V36.8679H85.3691L90.6035 30.4545H94.2896L88.8919 36.9673L94.3535 45H90.6745L86.6902 39.0199L85.1774 40.8665V45H82.1021Z" fill="black"/>
</svg>
