<svg width="167" height="168" viewBox="0 0 167 168" fill="none" xmlns="http://www.w3.org/2000/svg">
<rect width="167" height="168" fill="white"/>
<rect x="13.5" y="15.5" width="140" height="137" stroke="black" stroke-width="3" stroke-linejoin="round"/>
<path d="M21.649 91V76.4545H27.3876C28.4861 76.4545 29.4236 76.651 30.2001 77.044C30.9814 77.4323 31.5756 77.9839 31.9828 78.6989C32.3947 79.4091 32.6007 80.2448 32.6007 81.206C32.6007 82.1719 32.3923 83.0028 31.9757 83.6989C31.559 84.3902 30.9553 84.9205 30.1646 85.2898C29.3786 85.6591 28.4269 85.8438 27.3095 85.8438H23.4672V83.3722H26.8123C27.3994 83.3722 27.8871 83.2917 28.2754 83.1307C28.6636 82.9697 28.9525 82.7282 29.1419 82.4062C29.336 82.0843 29.4331 81.6842 29.4331 81.206C29.4331 80.723 29.336 80.3158 29.1419 79.9844C28.9525 79.6529 28.6613 79.402 28.2683 79.2315C27.88 79.0563 27.39 78.9688 26.7981 78.9688H24.7243V91H21.649ZM29.5041 84.3807L33.1191 91H29.7243L26.1873 84.3807H29.5041ZM39.513 91.2131C38.3908 91.2131 37.4249 90.9858 36.6152 90.5312C35.8103 90.072 35.19 89.4233 34.7544 88.5852C34.3188 87.7424 34.101 86.7457 34.101 85.5952C34.101 84.473 34.3188 83.4882 34.7544 82.6406C35.19 81.7931 35.8032 81.1326 36.5939 80.6591C37.3894 80.1856 38.3221 79.9489 39.3922 79.9489C40.1119 79.9489 40.7819 80.0649 41.4022 80.2969C42.0272 80.5241 42.5717 80.8674 43.0357 81.3267C43.5044 81.786 43.869 82.3636 44.1294 83.0597C44.3899 83.7509 44.5201 84.5606 44.5201 85.4886V86.3196H35.3084V84.4446H41.6721C41.6721 84.009 41.5774 83.6231 41.388 83.2869C41.1986 82.9508 40.9358 82.688 40.5996 82.4986C40.2682 82.3045 39.8823 82.2074 39.4419 82.2074C38.9827 82.2074 38.5755 82.3139 38.2203 82.527C37.87 82.7353 37.5953 83.017 37.3965 83.3722C37.1976 83.7225 37.0958 84.1132 37.0911 84.544V86.3267C37.0911 86.8665 37.1905 87.3329 37.3894 87.7259C37.593 88.1188 37.8794 88.4219 38.2488 88.6349C38.6181 88.848 39.056 88.9545 39.5627 88.9545C39.8989 88.9545 40.2066 88.9072 40.486 88.8125C40.7653 88.7178 41.0044 88.5758 41.2033 88.3864C41.4022 88.197 41.5537 87.965 41.6578 87.6903L44.4561 87.875C44.3141 88.5473 44.0229 89.1345 43.5826 89.6364C43.147 90.1335 42.5835 90.5218 41.8922 90.8011C41.2057 91.0758 40.4126 91.2131 39.513 91.2131ZM49.6053 91.206C48.9093 91.206 48.289 91.0852 47.7445 90.8438C47.2 90.5975 46.7691 90.2353 46.4519 89.7571C46.1394 89.2741 45.9831 88.6728 45.9831 87.9531C45.9831 87.3471 46.0944 86.8381 46.3169 86.4261C46.5395 86.0142 46.8425 85.6828 47.226 85.4318C47.6096 85.1809 48.0452 84.9915 48.5328 84.8636C49.0253 84.7358 49.5414 84.6458 50.0811 84.5938C50.7156 84.5275 51.227 84.4659 51.6152 84.4091C52.0035 84.3475 52.2852 84.2576 52.4604 84.1392C52.6356 84.0208 52.7232 83.8456 52.7232 83.6136V83.571C52.7232 83.1212 52.5811 82.7732 52.2971 82.527C52.0177 82.2808 51.62 82.1577 51.1039 82.1577C50.5594 82.1577 50.1261 82.2784 49.8042 82.5199C49.4822 82.7566 49.2691 83.0549 49.165 83.4148L46.3667 83.1875C46.5087 82.5246 46.7881 81.9517 47.2047 81.4688C47.6214 80.9811 48.1588 80.607 48.8169 80.3466C49.4798 80.0814 50.2469 79.9489 51.1181 79.9489C51.7241 79.9489 52.3042 80.0199 52.8581 80.1619C53.4168 80.304 53.9116 80.5241 54.3425 80.8224C54.7781 81.1207 55.1214 81.5043 55.3723 81.973C55.6233 82.437 55.7488 82.9934 55.7488 83.642V91H52.8794V89.4872H52.7942C52.619 89.8281 52.3846 90.1288 52.0911 90.3892C51.7975 90.6449 51.4448 90.8461 51.0328 90.9929C50.6209 91.1349 50.1451 91.206 49.6053 91.206ZM50.4718 89.1179C50.9168 89.1179 51.3098 89.0303 51.6507 88.8551C51.9917 88.6752 52.2592 88.4337 52.4533 88.1307C52.6474 87.8277 52.7445 87.4844 52.7445 87.1009V85.9432C52.6498 86.0047 52.5196 86.0616 52.3539 86.1136C52.1929 86.161 52.0106 86.206 51.807 86.2486C51.6034 86.2865 51.3998 86.322 51.1962 86.3551C50.9926 86.3835 50.8079 86.4096 50.6422 86.4332C50.2871 86.4853 49.977 86.5682 49.7118 86.6818C49.4467 86.7955 49.2407 86.9493 49.0939 87.1435C48.9471 87.3329 48.8738 87.5696 48.8738 87.8537C48.8738 88.2656 49.0229 88.5805 49.3212 88.7983C49.6242 89.0114 50.0078 89.1179 50.4718 89.1179ZM62.1159 91.1776C61.2873 91.1776 60.5369 90.9645 59.8645 90.5384C59.1969 90.1075 58.6666 89.4754 58.2736 88.642C57.8854 87.804 57.6912 86.7765 57.6912 85.5597C57.6912 84.3097 57.8925 83.2704 58.2949 82.4418C58.6974 81.6084 59.2324 80.9858 59.9 80.5739C60.5724 80.1572 61.3087 79.9489 62.1088 79.9489C62.7196 79.9489 63.2286 80.053 63.6358 80.2614C64.0478 80.465 64.3792 80.7206 64.6301 81.0284C64.8858 81.3314 65.08 81.6297 65.2125 81.9233H65.3049V76.4545H68.3233V91H65.3404V89.2528H65.2125C65.0705 89.5559 64.8693 89.8565 64.6088 90.1548C64.3532 90.4484 64.0194 90.6922 63.6074 90.8864C63.2002 91.0805 62.7031 91.1776 62.1159 91.1776ZM63.0748 88.7699C63.5624 88.7699 63.9744 88.6373 64.3105 88.3722C64.6515 88.1023 64.9119 87.7259 65.0918 87.2429C65.2765 86.7599 65.3688 86.1941 65.3688 85.5455C65.3688 84.8968 65.2788 84.3333 65.0989 83.8551C64.919 83.3769 64.6586 83.0076 64.3176 82.7472C63.9767 82.4867 63.5624 82.3565 63.0748 82.3565C62.5776 82.3565 62.1586 82.4915 61.8176 82.7614C61.4767 83.0312 61.2187 83.4053 61.0435 83.8835C60.8683 84.3617 60.7807 84.9157 60.7807 85.5455C60.7807 86.1799 60.8683 86.741 61.0435 87.2287C61.2234 87.7116 61.4815 88.0904 61.8176 88.3651C62.1586 88.6349 62.5776 88.7699 63.0748 88.7699ZM72.6788 95.0909C72.2953 95.0909 71.9354 95.0601 71.5993 94.9986C71.2678 94.9418 70.9932 94.8684 70.7754 94.7784L71.4572 92.5199C71.8123 92.6288 72.1319 92.688 72.416 92.6974C72.7048 92.7069 72.9534 92.6406 73.1618 92.4986C73.3748 92.3565 73.5476 92.1151 73.6802 91.7741L73.8578 91.3125L69.9444 80.0909H73.1262L75.3848 88.1023H75.4984L77.7782 80.0909H80.9814L76.7413 92.179C76.5377 92.7661 76.2607 93.2775 75.9103 93.7131C75.5647 94.1534 75.1267 94.492 74.5964 94.7287C74.0661 94.9702 73.4269 95.0909 72.6788 95.0909ZM92.9611 80.0909V82.3636H86.3915V80.0909H92.9611ZM87.883 77.4773H90.9086V87.6477C90.9086 87.9271 90.9512 88.1449 91.0364 88.3011C91.1216 88.4527 91.24 88.5592 91.3915 88.6207C91.5478 88.6823 91.7277 88.7131 91.9313 88.7131C92.0733 88.7131 92.2154 88.7012 92.3574 88.6776C92.4995 88.6491 92.6084 88.6278 92.6841 88.6136L93.16 90.8651C93.0085 90.9124 92.7954 90.9669 92.5208 91.0284C92.2462 91.0947 91.9123 91.1349 91.5194 91.1491C90.7902 91.1776 90.151 91.0805 89.6017 90.858C89.0572 90.6354 88.6335 90.2898 88.3304 89.821C88.0274 89.3523 87.8783 88.7604 87.883 88.0455V77.4773ZM99.7438 91.2131C98.6406 91.2131 97.6865 90.9787 96.8816 90.5099C96.0814 90.0365 95.4635 89.3783 95.0279 88.5355C94.5923 87.688 94.3745 86.7055 94.3745 85.5881C94.3745 84.4612 94.5923 83.4763 95.0279 82.6335C95.4635 81.786 96.0814 81.1278 96.8816 80.6591C97.6865 80.1856 98.6406 79.9489 99.7438 79.9489C100.847 79.9489 101.799 80.1856 102.599 80.6591C103.404 81.1278 104.024 81.786 104.46 82.6335C104.895 83.4763 105.113 84.4612 105.113 85.5881C105.113 86.7055 104.895 87.688 104.46 88.5355C104.024 89.3783 103.404 90.0365 102.599 90.5099C101.799 90.9787 100.847 91.2131 99.7438 91.2131ZM99.758 88.8693C100.26 88.8693 100.679 88.7273 101.015 88.4432C101.351 88.1544 101.605 87.7614 101.775 87.2642C101.95 86.767 102.038 86.2012 102.038 85.5668C102.038 84.9323 101.95 84.3665 101.775 83.8693C101.605 83.3722 101.351 82.9792 101.015 82.6903C100.679 82.4015 100.26 82.2571 99.758 82.2571C99.2514 82.2571 98.8252 82.4015 98.4796 82.6903C98.1387 82.9792 97.8806 83.3722 97.7054 83.8693C97.535 84.3665 97.4498 84.9323 97.4498 85.5668C97.4498 86.2012 97.535 86.767 97.7054 87.2642C97.8806 87.7614 98.1387 88.1544 98.4796 88.4432C98.8252 88.7273 99.2514 88.8693 99.758 88.8693ZM111.766 91V76.4545H117.505C118.603 76.4545 119.541 76.651 120.317 77.044C121.099 77.4323 121.693 77.9839 122.1 78.6989C122.512 79.4091 122.718 80.2448 122.718 81.206C122.718 82.1719 122.51 83.0028 122.093 83.6989C121.676 84.3902 121.073 84.9205 120.282 85.2898C119.496 85.6591 118.544 85.8438 117.427 85.8438H113.584V83.3722H116.93C117.517 83.3722 118.004 83.2917 118.393 83.1307C118.781 82.9697 119.07 82.7282 119.259 82.4062C119.453 82.0843 119.55 81.6842 119.55 81.206C119.55 80.723 119.453 80.3158 119.259 79.9844C119.07 79.6529 118.778 79.402 118.385 79.2315C117.997 79.0563 117.507 78.9688 116.915 78.9688H114.841V91H111.766ZM119.621 84.3807L123.236 91H119.841L116.305 84.3807H119.621ZM129.588 91.2131C128.484 91.2131 127.53 90.9787 126.725 90.5099C125.925 90.0365 125.307 89.3783 124.872 88.5355C124.436 87.688 124.218 86.7055 124.218 85.5881C124.218 84.4612 124.436 83.4763 124.872 82.6335C125.307 81.786 125.925 81.1278 126.725 80.6591C127.53 80.1856 128.484 79.9489 129.588 79.9489C130.691 79.9489 131.642 80.1856 132.443 80.6591C133.248 81.1278 133.868 81.786 134.303 82.6335C134.739 83.4763 134.957 84.4612 134.957 85.5881C134.957 86.7055 134.739 87.688 134.303 88.5355C133.868 89.3783 133.248 90.0365 132.443 90.5099C131.642 90.9787 130.691 91.2131 129.588 91.2131ZM129.602 88.8693C130.104 88.8693 130.523 88.7273 130.859 88.4432C131.195 88.1544 131.448 87.7614 131.619 87.2642C131.794 86.767 131.882 86.2012 131.882 85.5668C131.882 84.9323 131.794 84.3665 131.619 83.8693C131.448 83.3722 131.195 82.9792 130.859 82.6903C130.523 82.4015 130.104 82.2571 129.602 82.2571C129.095 82.2571 128.669 82.4015 128.323 82.6903C127.982 82.9792 127.724 83.3722 127.549 83.8693C127.379 84.3665 127.294 84.9323 127.294 85.5668C127.294 86.2012 127.379 86.767 127.549 87.2642C127.724 87.7614 127.982 88.1544 128.323 88.4432C128.669 88.7273 129.095 88.8693 129.602 88.8693ZM139.95 76.4545V91H136.924V76.4545H139.95ZM145.399 76.4545V91H142.373V76.4545H145.399Z" fill="black"/>
</svg>
