<svg width="135" height="75" viewBox="0 0 135 75" fill="none" xmlns="http://www.w3.org/2000/svg">
<rect width="135" height="75" fill="white"/>
<rect x="13.5" y="16.5" width="108" height="42" fill="#F30A0A" stroke="black" stroke-width="3" stroke-linejoin="round"/>
<path d="M35.4732 30.4545H38.5485V39.9006C38.5485 40.9612 38.2952 41.8892 37.7885 42.6847C37.2866 43.4801 36.5835 44.1004 35.6792 44.5455C34.7748 44.9858 33.7213 45.206 32.5186 45.206C31.3113 45.206 30.2554 44.9858 29.351 44.5455C28.4467 44.1004 27.7435 43.4801 27.2417 42.6847C26.7398 41.8892 26.4888 40.9612 26.4888 39.9006V30.4545H29.5641V39.6378C29.5641 40.1918 29.6848 40.6842 29.9263 41.1151C30.1725 41.5459 30.5182 41.8845 30.9632 42.1307C31.4083 42.3769 31.9268 42.5 32.5186 42.5C33.1152 42.5 33.6337 42.3769 34.074 42.1307C34.5191 41.8845 34.8624 41.5459 35.1039 41.1151C35.3501 40.6842 35.4732 40.1918 35.4732 39.6378V30.4545ZM53.2449 30.4545V45H50.5886L44.2605 35.8452H44.1539V45H41.0787V30.4545H43.7775L50.0559 39.6023H50.1838V30.4545H53.2449ZM55.7857 45V30.4545H58.861V42.4645H65.0968V45H55.7857ZM79.9334 37.7273C79.9334 39.3134 79.6328 40.6629 79.0314 41.7756C78.4348 42.8883 77.6204 43.7382 76.5882 44.3253C75.5608 44.9077 74.4055 45.1989 73.1223 45.1989C71.8297 45.1989 70.6697 44.9053 69.6422 44.3182C68.6148 43.7311 67.8027 42.8812 67.2061 41.7685C66.6096 40.6558 66.3113 39.3087 66.3113 37.7273C66.3113 36.1411 66.6096 34.7917 67.2061 33.679C67.8027 32.5663 68.6148 31.7187 69.6422 31.1364C70.6697 30.5492 71.8297 30.2557 73.1223 30.2557C74.4055 30.2557 75.5608 30.5492 76.5882 31.1364C77.6204 31.7187 78.4348 32.5663 79.0314 33.679C79.6328 34.7917 79.9334 36.1411 79.9334 37.7273ZM76.8155 37.7273C76.8155 36.6998 76.6616 35.8333 76.3539 35.1278C76.0508 34.4223 75.6223 33.8873 75.0684 33.5227C74.5144 33.1581 73.8657 32.9759 73.1223 32.9759C72.379 32.9759 71.7303 33.1581 71.1763 33.5227C70.6223 33.8873 70.1915 34.4223 69.8837 35.1278C69.5807 35.8333 69.4292 36.6998 69.4292 37.7273C69.4292 38.7547 69.5807 39.6212 69.8837 40.3267C70.1915 41.0322 70.6223 41.5672 71.1763 41.9318C71.7303 42.2964 72.379 42.4787 73.1223 42.4787C73.8657 42.4787 74.5144 42.2964 75.0684 41.9318C75.6223 41.5672 76.0508 41.0322 76.3539 40.3267C76.6616 39.6212 76.8155 38.7547 76.8155 37.7273ZM95.0453 35.5469H91.9345C91.8777 35.1444 91.7617 34.7869 91.5865 34.4744C91.4113 34.1572 91.1864 33.8873 90.9118 33.6648C90.6371 33.4422 90.3199 33.2718 89.96 33.1534C89.6049 33.035 89.219 32.9759 88.8024 32.9759C88.0495 32.9759 87.3938 33.1629 86.835 33.5369C86.2763 33.9062 85.8431 34.446 85.5353 35.1562C85.2276 35.8617 85.0737 36.7187 85.0737 37.7273C85.0737 38.7642 85.2276 39.6354 85.5353 40.3409C85.8478 41.0464 86.2834 41.5791 86.8422 41.9389C87.4009 42.2988 88.0472 42.4787 88.7811 42.4787C89.193 42.4787 89.5742 42.4242 89.9245 42.3153C90.2797 42.2064 90.5945 42.0478 90.8691 41.8395C91.1438 41.6264 91.371 41.3684 91.551 41.0653C91.7356 40.7623 91.8635 40.4167 91.9345 40.0284L95.0453 40.0426C94.9648 40.7102 94.7636 41.3542 94.4416 41.9744C94.1243 42.59 93.6958 43.1416 93.1561 43.6293C92.621 44.1122 91.9818 44.4957 91.2385 44.7798C90.4998 45.0592 89.6641 45.1989 88.7314 45.1989C87.434 45.1989 86.274 44.9053 85.2512 44.3182C84.2333 43.7311 83.4283 42.8812 82.8365 41.7685C82.2493 40.6558 81.9558 39.3087 81.9558 37.7273C81.9558 36.1411 82.2541 34.7917 82.8507 33.679C83.4473 32.5663 84.2569 31.7187 85.2797 31.1364C86.3024 30.5492 87.4529 30.2557 88.7314 30.2557C89.5742 30.2557 90.3554 30.3741 91.0751 30.6108C91.7995 30.8475 92.4411 31.1932 92.9998 31.6477C93.5585 32.0975 94.0131 32.6491 94.3635 33.3026C94.7186 33.956 94.9458 34.7041 95.0453 35.5469ZM97.2505 45V30.4545H100.326V36.8679H100.518L105.752 30.4545H109.438L104.04 36.9673L109.502 45H105.823L101.839 39.0199L100.326 40.8665V45H97.2505Z" fill="black"/>
</svg>
